
<svg width="32" height="32" viewBox="0 0 32 32" fill="none" xmlns="http://www.w3.org/2000/svg">
  <!-- Background -->
  <rect width="32" height="32" fill="#1E293B"/>
  
  <!-- Robot Head -->
  <rect x="8" y="8" width="16" height="12" rx="2" fill="#3B82F6" stroke="#60A5FA" stroke-width="0.5"/>
  
  <!-- Robot Eyes -->
  <circle cx="11" cy="11" r="1.5" fill="#FEF3C7"/>
  <circle cx="21" cy="11" r="1.5" fill="#FEF3C7"/>
  <circle cx="11" cy="11" r="0.8" fill="#1E293B"/>
  <circle cx="21" cy="11" r="0.8" fill="#1E293B"/>
  
  <!-- Robot Antenna -->
  <rect x="15.5" y="5" width="1" height="3" fill="#3B82F6"/>
  <circle cx="16" cy="5" r="0.5" fill="#EF4444"/>
  
  <!-- Robot Mouth -->
  <rect x="13" y="14" width="6" height="1" rx="0.5" fill="#FEF3C7"/>
  
  <!-- Robot Body -->
  <rect x="10" y="20" width="12" height="6" rx="1" fill="#3B82F6" stroke="#60A5FA" stroke-width="0.3"/>
  
  <!-- Robot Arms -->
  <rect x="5" y="14" width="2" height="6" rx="1" fill="#3B82F6"/>
  <rect x="25" y="14" width="2" height="6" rx="1" fill="#3B82F6"/>
  
  <!-- Robot Hands -->
  <circle cx="6" cy="21" r="1" fill="#FEF3C7"/>
  <circle cx="26" cy="21" r="1" fill="#FEF3C7"/>
  
  <!-- Robot Legs -->
  <rect x="11" y="26" width="2" height="4" rx="1" fill="#3B82F6"/>
  <rect x="19" y="26" width="2" height="4" rx="1" fill="#3B82F6"/>
  
  <!-- Robot Feet -->
  <rect x="10" y="30" width="4" height="1" rx="0.5" fill="#FEF3C7"/>
  <rect x="18" y="30" width="4" height="1" rx="0.5" fill="#FEF3C7"/>
</svg>
